<svg width="492" height="308" viewBox="0 0 492 308" fill="none" xmlns="http://www.w3.org/2000/svg">
<rect x="192" width="300" height="300" rx="150" fill="#E89759"/>
<g clip-path="url(#clip0_47_1857)">
<path d="M369.89 281.421H64.2268C55.367 281.421 48.7222 274.776 48.7222 265.916V86.5047C48.7222 77.6449 55.367 71 64.2268 71H369.89C378.75 71 385.395 77.6449 385.395 86.5047V265.916C383.18 274.776 376.535 281.421 369.89 281.421Z" fill="#849AFD"/>
<path d="M66.4385 274.775C59.7937 274.775 55.3638 270.345 55.3638 263.7V86.5036C55.3638 79.8587 59.7937 75.4288 66.4385 75.4288H367.672C374.317 75.4288 378.747 79.8587 378.747 86.5036V263.7C378.747 270.345 374.317 274.775 367.672 274.775H66.4385Z" fill="#E1E8F9"/>
<path d="M394.258 281.421H243.641H188.267H39.8652V290.28H394.258V281.421Z" fill="#738FF4"/>
<path d="M188.267 303.571H243.641H376.538L394.258 290.281H39.8652L57.5849 303.571H188.267Z" fill="#2144A5"/>
<path d="M447.421 303.571C447.421 305.786 347.748 308.001 223.71 308.001C99.6729 308.001 0 305.786 0 303.571C0 301.356 99.6729 299.141 223.71 299.141C347.748 299.141 447.421 301.356 447.421 303.571Z" fill="white"/>
<path d="M188.271 201.682H77.5229C77.5229 201.682 84.1678 159.598 108.532 159.598C128.467 159.598 132.897 186.178 143.972 186.178C157.261 186.178 152.831 170.673 168.336 170.673C183.841 170.673 188.271 201.682 188.271 201.682Z" fill="#C5D4FF"/>
<path d="M190.481 199.469H73.0889V201.683H190.481V199.469Z" fill="#849AFD"/>
<path d="M108.528 159.598C108.528 159.598 108.528 161.813 108.528 159.598C106.313 161.813 106.313 159.598 106.313 159.598C106.313 159.598 106.313 157.383 108.528 159.598C108.528 159.598 108.528 157.383 108.528 159.598Z" fill="#849AFD"/>
<path d="M143.97 188.392C145.193 188.392 146.185 187.4 146.185 186.177C146.185 184.954 145.193 183.962 143.97 183.962C142.747 183.962 141.755 184.954 141.755 186.177C141.755 187.4 142.747 188.392 143.97 188.392Z" fill="#849AFD"/>
<path d="M168.337 170.671C166.122 172.886 166.122 170.671 166.122 170.671C166.122 168.456 166.122 168.456 168.337 170.671C168.337 168.456 168.337 168.456 168.337 170.671Z" fill="#849AFD"/>
<path d="M305.664 141.877H265.794V144.092H305.664V141.877Z" fill="#C5D4FF"/>
<path d="M305.664 144.092H265.794V146.307H305.664V144.092Z" fill="#C5D4FF"/>
<path d="M305.664 148.523H265.794V150.738H305.664V148.523Z" fill="#C5D4FF"/>
<path d="M299.019 150.738H265.794V152.953H299.019V150.738Z" fill="#C5D4FF"/>
<path d="M285.729 152.952H265.794V155.167H285.729V152.952Z" fill="#C5D4FF"/>
<path d="M305.664 161.812H265.794V164.027H305.664V161.812Z" fill="#C5D4FF"/>
<path d="M305.664 164.027H265.794V166.242H305.664V164.027Z" fill="#C5D4FF"/>
<path d="M290.159 166.241H265.794V168.456H290.159V166.241Z" fill="#C5D4FF"/>
<path d="M299.019 170.673H265.794V172.888H299.019V170.673Z" fill="#C5D4FF"/>
<path d="M358.82 141.877H318.951V144.092H358.82V141.877Z" fill="#C5D4FF"/>
<path d="M358.82 144.092H318.951V146.307H358.82V144.092Z" fill="#C5D4FF"/>
<path d="M358.82 148.523H318.951V150.738H358.82V148.523Z" fill="#C5D4FF"/>
<path d="M352.175 150.738H318.951V152.953H352.175V150.738Z" fill="#C5D4FF"/>
<path d="M338.885 152.952H318.951V155.167H338.885V152.952Z" fill="#C5D4FF"/>
<path d="M354.391 115.3H79.7365C77.5216 115.3 75.3066 113.085 75.3066 110.87V95.3651C75.3066 93.1501 77.5216 90.9352 79.7365 90.9352H354.391C356.606 90.9352 358.821 93.1501 358.821 95.3651V110.87C358.821 113.085 356.606 115.3 354.391 115.3Z" fill="#F8FAFF"/>
<path d="M119.61 217.186H79.7407V219.401H119.61V217.186Z" fill="#C5D4FF"/>
<path d="M75.3126 217.186C75.3126 217.186 75.3126 219.401 75.3126 217.186C73.0976 219.401 73.0976 217.186 75.3126 217.186C73.0976 217.186 73.0976 217.186 75.3126 217.186Z" fill="#849AFD"/>
<path d="M110.75 219.401H79.7407V221.616H110.75V219.401Z" fill="#C5D4FF"/>
<path d="M101.89 223.832H79.7407V226.047H101.89V223.832Z" fill="#C5D4FF"/>
<path d="M75.3126 223.832C75.3126 223.832 75.3126 226.047 75.3126 223.832C73.0976 226.047 73.0976 223.832 75.3126 223.832C73.0976 223.832 73.0976 223.832 75.3126 223.832Z" fill="#849AFD"/>
<path d="M146.183 95.3639H106.313V97.5788H146.183V95.3639Z" fill="#C5D4FF"/>
<path d="M137.323 97.5784H106.313V99.7933H137.323V97.5784Z" fill="#C5D4FF"/>
<path d="M352.177 95.3639H177.196V97.5788H352.177V95.3639Z" fill="#C5D4FF"/>
<path d="M99.6776 95.3639H81.958V113.084H99.6776V95.3639Z" fill="#C5D4FF"/>
<path d="M228.147 170.674V168.459C234.792 168.459 239.222 164.029 239.222 157.384H241.437C241.437 164.029 234.792 170.674 228.147 170.674Z" fill="#D4E0FF"/>
<path d="M241.434 157.383H239.219C239.219 155.168 237.004 152.953 237.004 150.738L239.219 148.523C239.219 150.738 241.434 152.953 241.434 157.383Z" fill="#849AFD"/>
<path d="M228.145 170.674C221.5 170.674 214.855 164.029 214.855 157.384C214.855 150.739 221.5 144.094 228.145 144.094C232.575 144.094 234.79 146.309 237.005 148.524L234.79 150.739C232.575 148.524 230.36 148.524 228.145 148.524C221.5 148.524 217.07 152.954 217.07 159.599C217.07 166.244 221.5 170.674 228.145 170.674Z" fill="#C5D4FF"/>
<path d="M210.425 190.608H203.78V201.683H210.425V190.608Z" fill="#849AFD"/>
<path d="M217.065 188.394H210.42V201.683H217.065V188.394Z" fill="#C5D4FF"/>
<path d="M223.717 190.608H217.072V201.683H223.717V190.608Z" fill="#849AFD"/>
<path d="M230.357 181.748H223.712V201.682H230.357V181.748Z" fill="#849AFD"/>
<path d="M236.998 183.962H230.353V201.682H236.998V183.962Z" fill="#C5D4FF"/>
<path d="M243.649 199.469H237.004V201.683H243.649V199.469Z" fill="#849AFD"/>
<path d="M250.29 188.394H243.645V201.683H250.29V188.394Z" fill="#849AFD"/>
<path d="M254.721 201.683H201.562V203.898H254.721V201.683Z" fill="#566DC1"/>
<path d="M99.6739 203.898C99.6739 208.328 99.6739 212.758 93.029 212.758C88.5991 212.758 88.5991 210.543 88.5991 206.113C88.5991 201.683 90.8141 201.683 93.029 201.683C95.244 201.683 97.4589 201.683 99.6739 203.898Z" fill="white"/>
<path d="M117.398 188.392V181.747L119.613 179.532C119.613 177.317 117.398 175.102 115.183 177.317C112.968 179.532 115.183 181.747 115.183 181.747V190.607L117.398 188.392Z" fill="white"/>
<path d="M68.6637 248.196V257.056C68.6637 257.056 66.4487 259.271 66.4487 261.486C66.4487 263.701 70.8786 265.916 70.8786 263.701C73.0936 261.486 70.8786 259.271 70.8786 259.271V250.411L68.6637 248.196Z" fill="white"/>
<path d="M78.6293 303.459H80.8442V296.814H78.6293V303.459Z" fill="white"/>
<path d="M79.7412 303.57C79.7412 305.785 79.7412 305.785 79.7412 303.57C81.9562 303.57 81.9562 303.57 81.9562 303.57C81.9562 303.57 81.9562 303.57 79.7412 303.57Z" fill="#4A545A"/>
<path d="M81.9506 245.982C77.5207 245.982 77.5207 283.636 79.7357 301.356C81.9506 301.356 81.9506 301.356 81.9506 301.356C84.1656 292.496 95.2403 259.272 95.2403 245.982C93.0254 245.982 84.1656 245.982 81.9506 245.982Z" fill="#0F2D3A"/>
<path d="M104.105 299.141H101.89V305.786H104.105V299.141Z" fill="white"/>
<path d="M106.317 303.57C106.317 305.785 104.102 305.785 106.317 303.57C104.102 303.57 104.102 303.57 104.102 303.57C101.887 303.57 101.887 303.57 106.317 303.57C106.317 303.57 104.102 303.57 106.317 303.57Z" fill="#4A545A"/>
<path d="M101.889 245.982C106.319 245.982 106.319 283.636 104.104 301.356C101.889 301.356 101.889 301.356 101.889 301.356C99.6739 292.496 88.5991 259.272 88.5991 245.982C90.8141 245.982 99.6739 245.982 101.889 245.982Z" fill="#0F2D3A"/>
<path d="M119.605 188.391C119.605 195.036 119.605 206.11 108.53 221.615C104.1 228.26 106.315 230.475 104.1 250.41C101.885 252.625 84.1658 254.839 77.521 250.41C77.521 239.335 77.521 237.12 77.521 230.475C77.521 230.475 73.0911 234.905 73.0911 252.625C70.8761 252.625 68.6612 252.625 68.6612 252.625C68.6612 252.625 64.2313 223.83 81.9509 217.185C101.885 208.325 110.745 217.185 112.96 188.391C115.175 188.391 117.39 188.391 119.605 188.391Z" fill="#E89759"/>
<path d="M86.3813 208.326C86.3813 214.971 88.5963 214.971 93.0262 214.971C95.2412 214.971 97.4561 212.756 97.4561 208.326C97.4561 203.896 99.6711 206.111 99.6711 203.896C99.6711 199.466 95.2412 199.466 93.0262 199.466C86.3813 197.251 86.3813 201.681 86.3813 208.326Z" fill="#07181E"/>
<path d="M367.68 208.326H341.101V268.13H367.68V208.326Z" fill="#C5D4FF"/>
<path d="M334.455 172.887H307.876V268.13H334.455V172.887Z" fill="#C5D4FF"/>
<path d="M303.449 188.391H276.869V268.129H303.449V188.391Z" fill="#C5D4FF"/>
<path d="M164.572 234.145L166.749 234.556L167.16 232.379L164.983 231.968L164.572 234.145Z" fill="#E6E7E8"/>
<path d="M161.687 223.83C161.687 228.26 161.687 230.475 166.117 232.69C168.332 232.69 170.547 230.475 170.547 226.045C170.547 221.615 168.332 221.615 166.117 221.615C166.117 221.615 163.902 221.615 161.687 223.83Z" fill="#FEFEFE"/>
<path d="M177.194 296.924L174.979 301.354H177.194L179.409 296.924H177.194Z" fill="white"/>
<path d="M174.979 301.353C177.194 303.568 179.409 303.568 179.409 303.568L177.194 301.353C177.194 299.138 177.194 301.353 174.979 301.353C174.979 299.138 174.979 301.353 174.979 301.353C174.979 301.353 174.979 299.138 174.979 301.353Z" fill="#4A545A"/>
<path d="M188.271 294.709V299.139L190.486 296.924L188.271 285.849V294.709Z" fill="white"/>
<path d="M188.271 299.139C188.271 301.354 188.271 299.139 188.271 299.139C190.486 299.139 194.916 299.139 194.916 299.139C194.916 296.925 190.486 296.925 188.271 299.139C190.486 296.925 190.486 296.925 188.271 299.139Z" fill="#4A545A"/>
<path d="M183.836 252.623H186.051H188.266C188.266 252.623 190.481 250.408 190.481 252.623C190.481 252.623 188.266 250.408 186.051 250.408C188.266 252.623 186.051 252.623 183.836 252.623Z" fill="#E6E7E8"/>
<path d="M159.477 245.979C159.477 245.979 163.907 252.624 168.337 254.839C172.767 257.054 183.842 254.839 188.272 254.839C188.272 252.624 188.272 250.409 188.272 250.409C188.272 250.409 172.767 250.409 168.337 248.194C166.122 248.194 166.122 241.549 166.122 239.334C163.907 232.689 159.477 234.904 157.262 237.119C155.047 239.334 157.262 241.549 159.477 245.979Z" fill="#E89759"/>
<path d="M183.838 272.559C188.268 276.989 190.483 294.709 190.483 294.709H188.268C188.268 294.709 181.623 272.559 174.979 272.559C168.334 270.344 152.829 274.774 152.829 265.914C152.829 257.055 166.119 261.484 166.119 261.484C166.119 261.484 174.979 263.699 183.838 272.559Z" fill="#0F2D3A"/>
<path d="M150.61 261.486C150.61 263.701 146.18 272.56 152.825 274.775C159.47 276.99 166.115 276.99 172.76 276.99C174.975 276.99 177.19 279.205 177.19 281.42C177.19 285.85 174.975 299.14 174.975 299.14H177.19C177.19 299.14 183.834 276.99 181.619 270.345C179.404 263.701 150.61 259.271 150.61 261.486Z" fill="#15384C"/>
<path d="M163.909 232.69C172.768 232.69 163.909 254.84 170.553 263.699C168.338 265.914 152.834 272.559 146.189 270.344C146.189 259.269 152.834 232.69 163.909 232.69Z" fill="#E89759"/>
<path d="M168.33 223.831C168.33 223.831 172.759 226.046 172.759 223.831C172.759 221.616 172.759 219.401 172.759 221.616C170.545 221.616 168.33 219.401 163.9 219.401C161.685 219.401 159.47 221.616 159.47 226.046C161.685 232.69 163.9 230.476 163.9 230.476C163.9 228.261 163.9 226.046 163.9 226.046H161.685C161.685 223.831 163.9 226.046 163.9 226.046C163.9 223.831 166.115 223.831 166.115 223.831C166.115 221.616 168.33 223.831 168.33 223.831Z" fill="#164559"/>
<path d="M186.054 254.84H188.269H190.484C190.484 254.84 192.699 252.625 192.699 254.84C192.699 254.84 190.484 252.625 188.269 254.84C190.484 252.625 188.269 254.84 186.054 254.84Z" fill="#FEFEFE"/>
<path d="M159.477 248.196C159.477 248.196 163.907 254.841 168.336 257.056C172.766 259.271 183.841 257.056 188.271 257.056C188.271 254.841 188.271 252.626 188.271 252.626C188.271 252.626 174.981 252.626 170.551 250.411C168.336 250.411 168.336 241.551 166.122 241.551C163.907 234.907 161.692 237.121 159.477 239.336C157.262 241.551 157.262 245.981 159.477 248.196Z" fill="#DB743E"/>
<path d="M261.36 279.205C261.36 274.775 263.575 272.56 268.005 272.56H283.51C287.94 272.56 290.155 274.775 290.155 276.99C290.155 279.205 287.94 279.205 285.725 279.205H265.79C263.575 281.42 261.36 279.205 261.36 279.205Z" fill="#B5B1E5"/>
<path d="M294.576 270.346C287.931 270.346 285.716 265.916 285.716 263.701L287.931 243.766C287.931 239.336 292.361 237.121 296.791 237.121H299.006C301.221 237.121 303.435 239.336 303.435 241.551L301.221 265.916C299.006 268.131 296.791 270.346 294.576 270.346Z" fill="#B5B1E5"/>
<path d="M283.508 281.421H281.293V301.355H283.508V281.421Z" fill="white"/>
<path d="M287.935 283.635H268H287.935C287.935 281.42 290.15 281.42 290.15 281.42C292.365 279.205 292.365 276.99 292.365 276.99L294.58 250.411C294.58 250.411 294.58 250.411 296.795 250.411C296.795 250.411 296.795 250.411 296.795 252.626L294.58 279.205C294.58 279.205 294.58 281.42 292.365 283.635C290.15 281.42 290.15 283.635 287.935 283.635Z" fill="white"/>
<path d="M292.369 265.915H272.435H292.369C294.584 263.7 294.584 263.7 292.369 265.915C294.584 265.915 294.584 265.915 292.369 265.915Z" fill="white"/>
<path d="M292.369 305.786H272.435C272.435 301.356 274.65 299.141 279.079 299.141H285.724C287.939 299.141 292.369 299.141 292.369 305.786Z" fill="#483680"/>
<path d="M172.767 279.205C172.767 274.775 170.552 272.56 166.122 272.56H150.617C146.187 272.56 143.972 274.775 143.972 276.99C143.972 279.205 146.187 279.205 148.402 279.205H168.337C170.552 281.42 172.767 279.205 172.767 279.205Z" fill="#B5B1E5"/>
<path d="M139.54 270.346C146.185 270.346 148.4 265.916 148.4 263.701L143.97 243.766C143.97 239.336 139.54 237.121 135.11 237.121C132.895 237.121 130.68 239.336 130.68 241.551L132.895 265.916C132.895 268.131 135.11 270.346 139.54 270.346Z" fill="#B5B1E5"/>
<path d="M150.42 301.518H152.635V281.583H150.42V301.518Z" fill="white"/>
<path d="M146.18 283.635H166.115H146.18C146.18 281.42 143.965 281.42 143.965 281.42C141.75 279.205 141.75 276.99 141.75 276.99L139.535 250.411C139.535 250.411 139.535 250.411 137.32 250.411C137.32 250.411 137.32 250.411 137.32 252.626L139.535 279.205C139.535 279.205 139.535 281.42 141.75 283.635C141.75 281.42 143.965 283.635 146.18 283.635Z" fill="white"/>
<path d="M139.538 265.915H159.473H139.538C139.538 263.7 139.538 263.7 139.538 265.915Z" fill="white"/>
<path d="M141.755 305.786H161.689C161.689 303.571 159.475 299.141 155.045 299.141H148.4C143.97 299.141 141.755 301.356 141.755 305.786Z" fill="#483680"/>
<path d="M183.835 261.486V305.785H181.62V261.486C181.62 261.486 181.62 259.271 183.835 261.486C183.835 261.486 183.835 259.271 183.835 261.486Z" fill="#483680"/>
<path d="M270.215 261.486V305.785H268V261.486C268 261.486 268 259.271 270.215 261.486C270.215 261.486 270.215 259.271 270.215 261.486Z" fill="#483680"/>
<path d="M276.863 261.484H172.76C172.76 261.484 170.545 261.484 170.545 259.269V257.054C170.545 257.054 170.545 254.839 172.76 254.839H276.863C276.863 254.839 279.078 254.839 279.078 257.054L276.863 261.484C279.078 261.484 279.078 261.484 276.863 261.484Z" fill="white"/>
<path d="M201.561 257.054H188.271V254.839H201.561V257.054Z" fill="#63569B"/>
<path d="M208.207 239.336L203.777 254.841V257.056L201.562 254.841L208.207 239.336Z" fill="#63569B"/>
<path d="M372.116 299.139H369.901V305.784H372.116V299.139Z" fill="white"/>
<path d="M352.627 299.359L350.478 298.825L348.875 305.274L351.025 305.808L352.627 299.359Z" fill="white"/>
<path d="M354.388 219.401C354.388 219.401 349.958 228.261 349.958 232.69C349.958 237.12 354.388 239.335 354.388 239.335V219.401Z" fill="#2F2666"/>
<path d="M372.114 303.57C372.114 305.785 369.899 305.785 372.114 303.57C369.899 303.57 367.684 303.57 367.684 303.57C367.684 303.57 367.684 303.57 372.114 303.57C372.114 303.57 369.899 303.57 372.114 303.57Z" fill="#4A545A"/>
<path d="M352.18 303.568C352.18 305.783 352.18 305.783 352.18 303.568C349.965 303.568 345.535 303.568 345.535 303.568C345.535 303.568 347.75 301.353 349.965 301.353C349.965 303.568 349.965 303.568 352.18 303.568Z" fill="#4A545A"/>
<path d="M363.248 241.55C363.248 241.55 361.033 268.13 356.603 285.849C354.388 292.494 354.388 296.924 352.173 301.354C349.958 301.354 349.958 301.354 349.958 301.354C349.958 301.354 349.958 285.849 349.958 276.99C349.958 259.27 352.173 241.55 352.173 241.55H363.248Z" fill="#E89759"/>
<path d="M349.958 232.69C349.958 232.69 349.958 234.905 349.958 237.12L352.173 239.335V237.12L349.958 232.69Z" fill="#1C184C"/>
<path d="M369.897 241.55C374.327 241.55 374.327 281.42 372.112 301.354C369.897 301.354 369.897 301.354 369.897 301.354C367.682 290.279 354.393 257.055 354.393 241.55C356.608 241.55 365.467 241.55 369.897 241.55Z" fill="#DB743E"/>
<path d="M358.828 199.466C358.828 199.466 358.828 197.251 361.043 197.251C363.258 197.251 372.117 197.251 369.902 206.111C369.902 208.326 372.117 210.541 372.117 212.756C372.117 217.186 372.117 223.831 369.902 221.616C367.688 221.616 358.828 219.401 358.828 219.401C356.613 219.401 352.183 214.971 356.613 206.111C356.613 203.896 356.613 203.896 356.613 201.681C356.613 201.681 354.398 199.466 358.828 199.466Z" fill="#07181E"/>
<path d="M363.248 210.54H361.033V214.97H363.248V210.54Z" fill="#D1D3D4"/>
<path d="M361.034 212.755C363.249 212.755 365.464 212.755 367.679 212.755C369.894 214.97 372.109 219.4 369.894 226.045C365.464 239.334 369.894 241.549 369.894 250.409C367.679 250.409 356.604 250.409 349.959 250.409C349.959 245.979 349.959 241.549 349.959 239.334C349.959 234.904 347.744 230.475 349.959 223.83C349.959 221.615 349.959 219.4 352.174 219.4C354.389 217.185 356.604 212.755 361.034 212.755Z" fill="#3B2E72"/>
<path d="M367.684 203.895C367.684 208.325 367.684 212.755 361.039 212.755C356.609 212.755 356.609 208.325 356.609 203.895C356.609 199.466 358.824 199.466 361.039 199.466C365.469 199.466 367.684 199.466 367.684 203.895Z" fill="white"/>
<path d="M358.827 199.466C358.827 199.466 361.042 203.896 365.472 203.896C367.687 203.896 367.687 206.111 367.687 208.326V203.896V199.466L361.042 197.251L358.827 199.466Z" fill="#07181E"/>
<path d="M361.042 201.681C361.042 203.895 358.827 203.895 358.827 203.895V201.681V199.466L361.042 201.681C361.042 199.466 358.827 199.466 361.042 201.681Z" fill="#07181E"/>
<path d="M349.958 232.69C349.958 232.69 349.958 234.905 352.173 234.905H354.388V232.69C352.173 232.69 349.958 232.69 349.958 232.69Z" fill="white"/>
<path d="M343.317 217.186L352.177 219.401L358.822 234.906L347.747 230.476L343.317 217.186Z" fill="#D1D3D4"/>
<path d="M349.962 228.261C349.962 228.261 347.747 228.261 349.962 228.261C347.747 223.831 345.532 223.831 345.532 221.616C345.532 219.401 343.317 221.616 343.317 223.831C343.317 223.831 343.317 226.046 345.532 228.261C345.532 230.476 352.177 232.691 352.177 234.906L354.392 230.476C352.177 230.476 352.177 230.476 349.962 228.261Z" fill="white"/>
<path d="M372.117 221.616C372.117 214.971 365.472 214.971 363.257 217.186C361.042 221.616 363.257 230.476 358.827 232.691C356.612 232.691 352.182 230.476 349.967 230.476L347.752 234.906C349.967 234.906 358.827 239.336 361.042 239.336C367.687 237.121 374.332 226.046 372.117 221.616Z" fill="#2F2666"/>
<path d="M345.535 217.186L347.75 219.401H349.965L345.535 217.186Z" fill="#151616"/>
</g>
<defs>
<clipPath id="clip0_47_1857">
<rect width="447.421" height="237" fill="white" transform="translate(0 71)"/>
</clipPath>
</defs>
</svg>
