<svg id="Calque_1" data-name="Calque 1" xmlns="http://www.w3.org/2000/svg" viewBox="0 0 147.82 42.03"><defs><style>.cls-1{fill:#fff;}</style></defs><path class="cls-1" d="M47.45,34.17c-1.71.28-3.52.57-5.7.73V17a50.61,50.61,0,0,1,5.7-.84Z"/><path class="cls-1" d="M127.15,11.91V6.39H107.52A13.39,13.39,0,0,1,109.82,8a13.1,13.1,0,0,1,3,3.87h14.31"/><path class="cls-1" d="M128,35.49V30H112.72a14.16,14.16,0,0,1-2.86,3.67h0a12.9,12.9,0,0,1-2.5,1.81H128"/><path class="cls-1" d="M20.71,35.49c.1-.17,5.2-7.58,5.2-7.58H33.2V23.48H29l4.23-6.21V35.49c1.85,0,4.14-.16,6.17-.34V6.39H33.2S14.07,34.22,13.87,34.5c1.36.55,6.84,1,6.84,1"/><path class="cls-1" d="M60.29,9a7.56,7.56,0,0,0-.85-.64c-2.18-1.54-5.32-2.3-9.39-2.3-1.17,0-2.46,0-4,.16a35.41,35.41,0,0,0-4.27.6v5.49c4.05-.48,6.59-.61,7.33-.61.41,0,.85,0,1.29,0a11.5,11.5,0,0,1,2.46.2,4.24,4.24,0,0,1,1.89.65,2.91,2.91,0,0,1,1.17,1.29,4,4,0,0,1,.45,2,3.75,3.75,0,0,1-1.62,3.47,10.21,10.21,0,0,1-4.83.92l-8.14-.32v5.44l8.14.49c4.11,0,7.25-.81,9.47-2.34a7.27,7.27,0,0,0,2.06-2.22,9.37,9.37,0,0,1-1.74-2.54h0a9.67,9.67,0,0,1-.84-4.19,10.37,10.37,0,0,1,.88-4.39A5.15,5.15,0,0,1,60.29,9"/><path class="cls-1" d="M82.37,13.36c2.66-.68,4.72-1.17,6.17-1.41V6.39H82.37v7"/><path class="cls-1" d="M88.54,13.48a46.47,46.47,0,0,0-6.17,1.42V35.49h6.17v-22"/><path class="cls-1" d="M60.65,14.49a7.87,7.87,0,0,0,.68,3.39,9.06,9.06,0,0,0,1.74,2.42,11.21,11.21,0,0,0,2.42,1.61c.92.44,1.81.8,2.7,1.17a18.87,18.87,0,0,1,4.35,2,2.89,2.89,0,0,1,1.25,2.38,2.74,2.74,0,0,1-.2,1.21,2.13,2.13,0,0,1-.69,1,4.73,4.73,0,0,1-1.37.64,10.58,10.58,0,0,1-2.18.2A14.11,14.11,0,0,1,65,29.93a13.22,13.22,0,0,1-3-1.29l-1.73,5.24c.36.2.8.44,1.33.68a9.35,9.35,0,0,0,2,.73,16.82,16.82,0,0,0,2.58.56,20.17,20.17,0,0,0,3.26.24c3.63,0,6.33-.72,8.15-2.25a7.78,7.78,0,0,0,2.66-6.29A11.44,11.44,0,0,0,79.67,24a7.28,7.28,0,0,0-1.57-2.58,9.46,9.46,0,0,0-2.66-1.89,33.69,33.69,0,0,0-3.71-1.65c-.64-.28-1.29-.53-1.85-.77a5.6,5.6,0,0,1-1.49-.76,3.64,3.64,0,0,1-1-1A2.36,2.36,0,0,1,67,14a2.31,2.31,0,0,1,1-2,6.43,6.43,0,0,1,3.23-.64,10.29,10.29,0,0,1,3.34.48,13.64,13.64,0,0,1,2.58,1.13l1.78-5.2a19.85,19.85,0,0,0-3.35-1.37,16.54,16.54,0,0,0-4.75-.6,13.43,13.43,0,0,0-4.2.6,9,9,0,0,0-3.18,1.73,7.83,7.83,0,0,0-2,2.79,8.57,8.57,0,0,0-.72,3.62"/><path class="cls-1" d="M91.2,6.39V12a55.27,55.27,0,0,1,6.29-.36c3.06,0,5.32.81,6.77,2.34s2.13,3.87,2.13,6.93a10,10,0,0,1-2.21,6.81c-1.53,1.69-3.83,2.5-6.89,2.5a49.44,49.44,0,0,1-6.09-.4v5.68c.6.08,1.25.16,1.89.2,1.45.08,2.78.12,3.87.12a22.28,22.28,0,0,0,6.57-.88,13.64,13.64,0,0,0,5-2.78,12.59,12.59,0,0,0,3.14-4.64,17.51,17.51,0,0,0,1.13-6.61,17.8,17.8,0,0,0-1.13-6.77,12.15,12.15,0,0,0-3.14-4.63,12.23,12.23,0,0,0-4.92-2.62,22.6,22.6,0,0,0-6.41-.85c-1.12,0-2.41,0-4,.16-.64,0-1.33.08-2,.16"/><path class="cls-1" d="M125.78,17.64h-11.2a28,28,0,0,1,.2,3.3,17.79,17.79,0,0,1-.12,2.06h11.12V17.64"/><path class="cls-1" d="M.76,35.84a3.8,3.8,0,0,0-.69,1.29c-.44,1.61,1.09,2.86,4.56,3.7C15,43.33,33.45,41.94,61,36.41c-.32-.12-1.44-.66-2.34-1.13-.22-.12-.17-.41-.09-.69l0-.14c-20.11,3.82-35.83,4.29-45,2.92-7.74-1.13-7.38-4.07,1.13-8.71.86-.48,1.26-.7,2.43-1.26.13-.13,1.1-1.51,1.14-1.56-3.1,1.29-6.32,2.59-8.73,3.83C5,32.09,2,34.14.76,35.84"/><path class="cls-1" d="M147.21,2.48A4.74,4.74,0,0,0,146,1.67c-2-1-5.68-1.53-11-1.65-7.5-.2-16.73,1.07-27.78,2.81h0a133.76,133.76,0,0,1,22.65-1.37c9.83.49,11.69,2.9,5.52,7.26A67.44,67.44,0,0,1,121,15.94a.68.68,0,0,0-.2.08h6.09a1.15,1.15,0,0,1,.84.36,1,1,0,0,1,.37.85v.28c8.38-3.3,13.26-6.57,17.09-9.79,2.57-2.22,3.26-3.95,2-5.24"/><path class="cls-1" d="M135.77,4.89c.06,3.19-7,7.88-14.66,11.05a68.38,68.38,0,0,0,14.45-7.26Q144.88,2.1,130,1.37a134.79,134.79,0,0,0-22.81,1.38,147.59,147.59,0,0,1,17.65-.69c7,.16,10.69.92,10.93,2.83"/></svg>